<svg xmlns="http://www.w3.org/2000/svg" viewBox="0 0 384 512">
    <path fill="black" d="M318.7 268.7c-.2-49.2 40.1-72.8 41.9-73.9-22.8-33.4-58.3-38-70.9-38.5-30.2-3.1-59 17.7-74.3 17.7-15.3 0-39-17.3-64.1-16.9-33 .5-63.5 19.2-80.4 48.8-34.4 59.6-8.8 148 24.7 196.5 16.4 23.7 35.9 50.3 61.5 49.3 24.7-1 34-15.9 63.8-15.9 29.8 0 38.1 15.9 64.3 15.4 26.6-.5 43.4-24.1 59.7-47.9 18.8-27.5 26.5-54.1 26.9-55.5-.6-.3-51.6-19.8-51.8-78.1zM259.1 114.9c13.6-16.5 22.8-39.5 20.3-62.4-19.6.8-43.2 13.1-57.3 29.6-12.6 14.6-23.6 38-20.7 60.4 21.9 1.7 44.2-11.1 57.7-27.6z"/>
</svg>