<svg xmlns="http://www.w3.org/2000/svg" viewBox="0 0 48 48">
    <path fill="#FFC107" d="M43.6 20.5H42V20H24v8h11.3C33.7 32.7 29.3 36 24 36c-6.6 0-12-5.4-12-12s5.4-12 12-12c3 0 5.7 1.1 7.8 3l5.7-5.7C34.1 6.5 29.3 4.5 24 4.5 12.1 4.5 2.5 14.1 2.5 26S12.1 47.5 24 47.5 45.5 37.9 45.5 26c0-1.8-.2-3.5-.6-5.5z"/>
    <path fill="#FF3D00" d="M6.3 14.7l6.6 4.8C14.7 16 19 13 24 13c3 0 5.7 1.1 7.8 3l5.7-5.7C34.1 6.5 29.3 4.5 24 4.5c-7.9 0-14.7 4.4-18.1 10.2z"/>
    <path fill="#4CAF50" d="M24 47.5c5.2 0 9.9-2 13.3-5.3l-6.2-5.1C29.2 38.7 26.7 39.5 24 39.5c-5.2 0-9.6-3.3-11.2-7.9l-6.5 5C9.6 43.2 16.3 47.5 24 47.5z"/>
    <path fill="#1976D2" d="M43.6 20.5H42V20H24v8h11.3c-1 2.7-3 4.8-5.6 6.1l6.2 5.1C39.9 35.8 45.5 31.5 45.5 26c0-1.8-.2-3.5-.6-5.5z"/>
</svg>